<svg width="14" height="12" viewBox="0 0 14 12" fill="none" xmlns="http://www.w3.org/2000/svg">
    <g clip-path="url(#clip0_332_101)">
        <path d="M2.33333 0C2.61285 0 2.85347 0.191953 2.90694 0.457266L2.9434 0.75H13.1687C13.6622 0.75 14.0559 1.22461 13.9174 1.70297L12.6049 6.20391C12.5101 6.52734 12.2038 6.75 11.8562 6.75H4.14896L4.37257 7.875H11.8611C12.1844 7.875 12.4444 8.12578 12.4444 8.4375C12.4444 8.74922 12.1844 9 11.8611 9H3.86701C3.60938 9 3.36875 8.80781 3.31528 8.54297L1.85062 1.125H0.583333C0.261285 1.125 0 0.873047 0 0.5625C0 0.251953 0.261285 0 0.583333 0H2.33333ZM3.11111 10.875C3.11111 10.2539 3.63368 9.75 4.27778 9.75C4.92187 9.75 5.44444 10.2539 5.44444 10.875C5.44444 11.4961 4.92187 12 4.27778 12C3.63368 12 3.11111 11.4961 3.11111 10.875ZM12.4444 10.875C12.4444 11.4961 11.9219 12 11.2778 12C10.6337 12 10.1111 11.4961 10.1111 10.875C10.1111 10.2539 10.6337 9.75 11.2778 9.75C11.9219 9.75 12.4444 10.2539 12.4444 10.875Z" fill="white"/>
    </g>
    <defs>
        <clipPath id="clip0_332_101">
            <rect width="14" height="12" fill="white"/>
        </clipPath>
    </defs>
</svg>
